<svg xmlns="http://www.w3.org/2000/svg" viewBox="0 0 820 460" width="820" height="460" font-family="-apple-system,BlinkMacSystemFont,'Segoe UI','PingFang SC','Microsoft YaHei',sans-serif">
<rect width="820" height="460" fill="#ffffff"/>
<text x="74" y="30" font-size="16" font-weight="700" fill="#1b2130">Figure 1. Request share versus byte share by content class</text>
<text x="74" y="47" font-size="11.5" fill="#5d6b85">原文插图（示例数据）：视频只占 7.1% 的请求，却占 68.4% 的字节。</text>
<line x1="74" y1="364.0" x2="794" y2="364.0" stroke="#e8ecf6" stroke-width="1"/>
<text x="64" y="368.0" font-size="10.5" fill="#5d6b85" text-anchor="end">0</text>
<line x1="74" y1="302.4" x2="794" y2="302.4" stroke="#e8ecf6" stroke-width="1"/>
<text x="64" y="306.4" font-size="10.5" fill="#5d6b85" text-anchor="end">0.153</text>
<line x1="74" y1="240.8" x2="794" y2="240.8" stroke="#e8ecf6" stroke-width="1"/>
<text x="64" y="244.8" font-size="10.5" fill="#5d6b85" text-anchor="end">0.306</text>
<line x1="74" y1="179.2" x2="794" y2="179.2" stroke="#e8ecf6" stroke-width="1"/>
<text x="64" y="183.2" font-size="10.5" fill="#5d6b85" text-anchor="end">0.46</text>
<line x1="74" y1="117.6" x2="794" y2="117.6" stroke="#e8ecf6" stroke-width="1"/>
<text x="64" y="121.6" font-size="10.5" fill="#5d6b85" text-anchor="end">0.613</text>
<line x1="74" y1="56.0" x2="794" y2="56.0" stroke="#e8ecf6" stroke-width="1"/>
<text x="64" y="60.0" font-size="10.5" fill="#5d6b85" text-anchor="end">0.766</text>
<line x1="74" y1="56" x2="74" y2="364" stroke="#c9d2e6" stroke-width="1.2"/>
<line x1="74" y1="364" x2="794" y2="364" stroke="#c9d2e6" stroke-width="1.2"/>
<rect x="93.8" y="175.8" width="66.0" height="188.2" rx="3" fill="#4f6bed" opacity="0.92"/>
<rect x="273.8" y="253.8" width="66.0" height="110.2" rx="3" fill="#4f6bed" opacity="0.92"/>
<rect x="453.8" y="335.5" width="66.0" height="28.5" rx="3" fill="#4f6bed" opacity="0.92"/>
<rect x="633.8" y="288.8" width="66.0" height="75.2" rx="3" fill="#4f6bed" opacity="0.92"/>
<rect x="164.0" y="315.4" width="66.0" height="48.6" rx="3" fill="#8b5cf6" opacity="0.92"/>
<rect x="344.0" y="314.1" width="66.0" height="49.9" rx="3" fill="#8b5cf6" opacity="0.92"/>
<rect x="524.0" y="89.0" width="66.0" height="275.0" rx="3" fill="#8b5cf6" opacity="0.92"/>
<rect x="704.0" y="335.5" width="66.0" height="28.5" rx="3" fill="#8b5cf6" opacity="0.92"/>
<text x="164.0" y="382" font-size="10.5" fill="#39457a" text-anchor="end" transform="rotate(-26 164.0 382)">Static</text>
<text x="344.0" y="382" font-size="10.5" fill="#39457a" text-anchor="end" transform="rotate(-26 344.0 382)">Images</text>
<text x="524.0" y="382" font-size="10.5" fill="#39457a" text-anchor="end" transform="rotate(-26 524.0 382)">Video</text>
<text x="704.0" y="382" font-size="10.5" fill="#39457a" text-anchor="end" transform="rotate(-26 704.0 382)">API</text>
<text x="434.0" y="446" font-size="11.5" fill="#5d6b85" text-anchor="middle">Content class</text>
<text x="16" y="210.0" font-size="11.5" fill="#5d6b85" text-anchor="middle" transform="rotate(-90 16 210.0)">Share</text>
<rect x="702" y="51" width="12" height="12" rx="3" fill="#4f6bed"/>
<text x="720" y="61" font-size="11" fill="#39457a" text-anchor="start">Request share</text>
<rect x="702" y="71" width="12" height="12" rx="3" fill="#8b5cf6"/>
<text x="720" y="81" font-size="11" fill="#39457a" text-anchor="start">Byte share</text>
</svg>